<svg xmlns="http://www.w3.org/2000/svg" viewBox="0 0 475.09 101.9"><defs><style>.cls-1,.cls-2{fill:#fff;}.cls-1{opacity:0.5;}</style></defs><title>fring_coin_logo_FR_NG_1</title><g id="Layer_2" data-name="Layer 2"><g id="Layer_1-2" data-name="Layer 1"><rect class="cls-1" x="199" y="92.99" width="29.22" height="8.91"/><rect class="cls-1" x="198" y="82.99" width="29.22" height="8.91"/><rect class="cls-1" x="196" y="72.99" width="29.22" height="8.91"/><rect class="cls-1" x="198" y="62.99" width="29.22" height="8.91"/><rect class="cls-1" x="197" y="52.99" width="29.22" height="8.91"/><rect class="cls-1" x="198" y="42.99" width="29.22" height="8.91"/><rect class="cls-1" x="200" y="32.99" width="29.22" height="8.91"/><rect class="cls-1" x="198" y="22.99" width="29.22" height="8.91"/><rect class="cls-1" x="197" y="12.99" width="29.22" height="8.91"/><rect class="cls-1" x="198" y="2.99" width="29.22" height="8.91"/><polygon class="cls-2" points="34.34 28.31 34.34 43.47 65.29 43.47 65.29 69.31 34.34 69.31 34.34 100.14 0 100.14 0 1.08 77.35 1.08 77.35 28.31 34.34 28.31"/><path class="cls-2" d="M175.53,56.47A32.69,32.69,0,0,0,181.63,37a35.94,35.94,0,0,0-4.71-18.35A32.84,32.84,0,0,0,162.75,5.79Q153.34,1.08,140,1.08H89v99.06H123.3V71.32l15.21,28.82h37.33L158,68.69C165.6,66.21,171.44,62.13,175.53,56.47Zm-31.19-10.3c-1.63,1.5-4.11,2.25-7.42,2.25H123.3V29.86h13.62q4.8,0,7.36,2.47a9,9,0,0,1,2.54,6.81C146.82,42.32,146,44.67,144.34,46.17Z"/><polygon class="cls-2" points="355.66 1.08 355.66 100.14 314.39 100.14 284.96 55.54 284.96 100.14 250.61 100.14 250.61 1.08 284.96 1.08 321.31 57.09 321.31 1.08 355.66 1.08"/><path class="cls-2" d="M475.09,47.34V81.69a64.58,64.58,0,0,1-16.26,18.45H387.77a47.58,47.58,0,0,1-13-15.51Q368,71.93,368,55.69t6.75-28.93A47.77,47.77,0,0,1,394,7q12.53-7,29.39-7,21.51,0,35.05,10.37t16,28.15h-36.2a13.36,13.36,0,0,0-5.72-5,20.58,20.58,0,0,0-9-1.76q-9.87,0-15.31,6.4c-3.6,4.29-5.42,10.15-5.42,17.57q0,12.84,6,19.19t18.56,6.34a22.93,22.93,0,0,0,19.19-9.59H419.24V47.34Z"/></g></g></svg>