<svg xmlns="http://www.w3.org/2000/svg" viewBox="0 0 524.24 160.97"><defs><style>.cls-1,.cls-2,.cls-6{fill:#fff;}.cls-2{font-size:22px;font-family:KulimPark-Light, Kulim Park;font-weight:300;}.cls-3{letter-spacing:-0.04em;}.cls-4{letter-spacing:-0.04em;}.cls-5{letter-spacing:-0.13em;}.cls-6{opacity:0.2;}</style></defs><title>FRING_logo_1</title><g id="Layer_2" data-name="Layer 2"><g id="Layer_1-2" data-name="Layer 1"><polygon class="cls-1" points="85.92 30.32 85.92 45.49 116.86 45.49 116.86 71.32 85.92 71.32 85.92 102.15 51.57 102.15 51.57 3.1 128.93 3.1 128.93 30.32 85.92 30.32"/><path class="cls-1" d="M225.1,58.48A32.62,32.62,0,0,0,231.2,39a35.94,35.94,0,0,0-4.71-18.35A32.84,32.84,0,0,0,212.32,7.8q-9.4-4.69-22.74-4.7H138.53v99.05h34.34V73.33l15.21,28.82h37.33L207.53,70.7C215.18,68.23,221,64.14,225.1,58.48Zm-31.19-10.3c-1.63,1.51-4.11,2.26-7.42,2.26H172.87V31.87h13.62c3.2,0,5.66.82,7.36,2.48a9,9,0,0,1,2.54,6.8C196.39,44.34,195.57,46.68,193.91,48.18Z"/><polygon class="cls-1" points="348.23 3.1 348.23 102.15 306.97 102.15 277.53 57.55 277.53 102.15 243.18 102.15 243.18 3.1 277.53 3.1 313.88 59.1 313.88 3.1 348.23 3.1"/><path class="cls-1" d="M464.66,49.35V83.7a64.58,64.58,0,0,1-16.26,18.45H377.34a47.58,47.58,0,0,1-13-15.51q-6.74-12.7-6.74-28.93t6.74-28.93A47.8,47.8,0,0,1,383.6,9Q396.13,2,413,2,434.52,2,448,12.38t16,28.16H427.84a13.23,13.23,0,0,0-5.72-5,20.42,20.42,0,0,0-9-1.77q-9.88,0-15.32,6.41t-5.41,17.57q0,12.83,6,19.18T417,83.23a22.93,22.93,0,0,0,19.19-9.59H408.81V49.35Z"/><text class="cls-2" transform="translate(28.73 132.45)">AN OFFLINE COIN <tspan class="cls-3" x="176.42" y="0">F</tspan><tspan x="185.68" y="0">OR THE EDINBU</tspan><tspan class="cls-4" x="335.43" y="0">R</tspan><tspan x="346.59" y="0">GH FESTI</tspan><tspan class="cls-5" x="433.2" y="0">V</tspan><tspan x="443.41" y="0">AL</tspan></text><rect class="cls-6" x="223.57" y="100" width="29.22" height="8.91"/><rect class="cls-6" x="222.57" y="90" width="29.22" height="8.91"/><rect class="cls-6" x="220.57" y="80" width="29.22" height="8.91"/><rect class="cls-6" x="222.57" y="70" width="29.22" height="8.91"/><rect class="cls-6" x="221.57" y="60" width="29.22" height="8.91"/><rect class="cls-6" x="222.57" y="50" width="29.22" height="8.91"/><rect class="cls-6" x="224.57" y="40" width="29.22" height="8.91"/><rect class="cls-6" x="222.57" y="30" width="29.22" height="8.91"/><rect class="cls-6" x="221.57" y="20" width="29.22" height="8.91"/><rect class="cls-6" x="222.57" y="10" width="29.22" height="8.91"/><rect class="cls-6" x="222.57" width="29.22" height="8.91"/></g></g></svg>