<svg xmlns="http://www.w3.org/2000/svg" viewBox="0 0 34.47 70.76"><defs><style>.cls-1{fill:#1d1d1b;}</style></defs><title>frng_black_1</title><g id="Layer_2" data-name="Layer 2"><g id="Layer_1-2" data-name="Layer 1"><path class="cls-1" d="M34.47.05V10.46a22.21,22.21,0,0,0-7.4.79,5.61,5.61,0,0,0-3.55,3.21,17.14,17.14,0,0,0-1,5.56l0,.73h8v9.3h-8V40.71h7.8V50H22.4a27.33,27.33,0,0,1-2.2,11.55,14.66,14.66,0,0,1-7.1,7.16c-.36.17-.74.33-1.13.48-3.11,1.25-7.11,1.74-12,1.52V60.3a22.39,22.39,0,0,0,7.4-.8A5.57,5.57,0,0,0,11,56.3a16.67,16.67,0,0,0,1-5.56c0-.25,0-.49,0-.74H4V40.71h8V30.05H4.17v-9.3h7.9a27.43,27.43,0,0,1,2.2-11.54,14.71,14.71,0,0,1,7.1-7.16c.36-.18.74-.33,1.13-.49C25.62.31,29.62-.18,34.47.05Z"/></g></g></svg>