<svg xmlns="http://www.w3.org/2000/svg" viewBox="0 0 152.82 152.79"><defs><style>.cls-1{fill:#fff;}.cls-2{opacity:0.5;}</style></defs><title>frng_coin_logo</title><g id="Layer_2" data-name="Layer 2"><g id="Layer_1-2" data-name="Layer 1"><path class="cls-1" d="M134,110v-4.09H108.69v11h12.39a10.39,10.39,0,0,1-8.68,4.34q-5.67,0-8.4-2.87c-1.83-1.91-2.73-4.81-2.73-8.68,0-3.36.81-6,2.45-7.94a8.55,8.55,0,0,1,6.93-2.91,9.3,9.3,0,0,1,4.06.81A6,6,0,0,1,117.3,102h16.37a18.59,18.59,0,0,0-7.24-12.74q-6.12-4.69-15.85-4.69a26.63,26.63,0,0,0-13.3,3.19,21.66,21.66,0,0,0-8.72,8.92,29.7,29.7,0,0,0,0,26.18,21.69,21.69,0,0,0,8.75,8.93,26.05,26.05,0,0,0,11.16,3.11,66.72,66.72,0,0,1-73.61-6.33V109.58L51.31,134.5H66.85V84.94H51.31v25.34L34.86,84.94H19.32v25.87a66.69,66.69,0,0,1,6.26-77.53V67.85H41.12V49.16h14V37.47h-14V30.61H60.58V18.29H43.73a66.73,66.73,0,0,1,65.36,0H88.74V67.85h15.54V50.07l9.38,17.78h17.08L120,48.88a15.17,15.17,0,0,0,7.94-5.53,14.5,14.5,0,0,0,2.53-6A66.69,66.69,0,0,1,134,110Z"/><path class="cls-1" d="M114.92,35.51a4.1,4.1,0,0,1-1.12,3.18,4.86,4.86,0,0,1-3.36,1h-6.16v-8.4h6.16a4.57,4.57,0,0,1,3.32,1.12A4.09,4.09,0,0,1,114.92,35.51Z"/><g class="cls-2"><path class="cls-1" d="M74.85,152.79A76.38,76.38,0,0,1,55.91,150l1.34-4.81A71.62,71.62,0,0,0,75,147.79Zm3.2,0-.1-5,2-.07.24,5C79.47,152.75,78.76,152.77,78.05,152.79ZM92.85,151l-1.07-4.88c2.26-.5,4.53-1.11,6.73-1.83l1.55,4.75C97.7,149.84,95.27,150.5,92.85,151Zm-40-1.93a74.6,74.6,0,0,1-7-2.65l2-4.58c2.13.93,4.32,1.76,6.52,2.47ZM103.08,148l-1.75-4.68A71.33,71.33,0,0,0,117.18,135l2.86,4.11A76.39,76.39,0,0,1,103.08,148Zm-68.47-7.65c-.59-.39-1.19-.79-1.77-1.2l2.86-4.1q.81.57,1.65,1.11Zm-4.36-3.08a77.07,77.07,0,0,1-13.69-13.38l3.92-3.12a71.84,71.84,0,0,0,12.79,12.52Zm92.37,0-3-4,1.57-1.23,3.14,3.89C123.74,136.39,123.19,136.82,122.62,137.25Zm10.93-10.13-3.74-3.32c1.54-1.73,3-3.56,4.38-5.43l4,2.94C136.77,123.31,135.2,125.27,133.55,127.12ZM14.63,121.36c-1.46-2-2.84-4.1-4.1-6.24l4.31-2.54a69.81,69.81,0,0,0,3.83,5.84Zm125.43-2.68-4.16-2.77a71.37,71.37,0,0,0,8-16l4.72,1.65A75.84,75.84,0,0,1,140.06,118.68ZM5,103.61c-.26-.67-.5-1.33-.73-2L9,100c.22.63.44,1.26.68,1.88Zm-1.72-5A76.24,76.24,0,0,1,.07,79.68l5-.21a71.52,71.52,0,0,0,3,17.64Zm146.31-.08L144.79,97c.19-.63.38-1.27.55-1.91l4.83,1.3C150,97.11,149.78,97.79,149.58,98.48Zm2.88-14.63-5-.48c.23-2.31.34-4.65.34-7v-.17h5v.14C152.82,78.88,152.7,81.39,152.46,83.85ZM0,76.48V76.4C0,73.94.12,71.46.35,69l5,.48C5.11,71.78,5,74.1,5,76.4Zm147.75-3.24a71.53,71.53,0,0,0-3-17.64l4.78-1.45A76.65,76.65,0,0,1,152.75,73ZM7.46,57.75l-4.83-1.3c.18-.69.38-1.37.58-2.05L8,55.84C7.81,56.47,7.63,57.11,7.46,57.75ZM8.93,53,4.2,51.34a76.47,76.47,0,0,1,8.51-17.16L16.88,37A70.67,70.67,0,0,0,8.93,53Zm134.89-.22c-.22-.63-.45-1.25-.69-1.87l4.67-1.79c.25.67.5,1.33.73,2Zm-5.88-12.63c-1.18-2-2.47-4-3.84-5.82l4-3c1.47,2,2.85,4.1,4.11,6.23ZM18.58,34.49l-4-2.94c1.45-2,3-4,4.67-5.82L23,29.05A69.32,69.32,0,0,0,18.58,34.49Zm113.71-2.56a71.84,71.84,0,0,0-12.81-12.5l3-4a76.72,76.72,0,0,1,13.7,13.37ZM31.59,20.8l-3.14-3.89c.56-.45,1.11-.89,1.68-1.32l3,4Zm4-3-2.87-4.1A76,76,0,0,1,49.66,4.8l1.75,4.68A70.86,70.86,0,0,0,35.58,17.81Zm81.48-.13c-.55-.38-1.1-.76-1.66-1.12l2.74-4.18c.59.38,1.18.78,1.76,1.19Zm-12.18-6.79c-2.12-.93-4.31-1.75-6.52-2.47L99.9,3.67c2.36.76,4.71,1.65,7,2.63ZM54.23,8.5,52.68,3.74a74.3,74.3,0,0,1,7.2-2L61,6.66C58.69,7.16,56.43,7.78,54.23,8.5ZM95.5,7.57A71.35,71.35,0,0,0,77.79,5l.09-5a76.44,76.44,0,0,1,19,2.75ZM72.8,5.08l-.25-5C73.26.05,74,0,74.68,0l.11,5C74.13,5,73.46,5,72.8,5.08Z"/></g></g></g></svg>