<svg xmlns="http://www.w3.org/2000/svg" viewBox="0 0 182.09 48.3"><defs><style>.cls-1{fill:#fff;}</style></defs><title>FRING_logo</title><g id="Layer_2" data-name="Layer 2"><g id="Layer_1-2" data-name="Layer 1"><path class="cls-1" d="M60.86,3.5V.84H36.71V47.46h3.08V25.83H60V23.17H39.79V3.5Z"/><path class="cls-1" d="M66.82,7.77a11.64,11.64,0,0,1,3.61-3.85,16.61,16.61,0,0,1,5.18-2.31,23.6,23.6,0,0,1,6-.77H92V47.46H88.87V27.16H84.81a36.16,36.16,0,0,1-4-.21L64.3,47.46H60.66L77.74,26.32a18.92,18.92,0,0,1-8.89-4.73,11.26,11.26,0,0,1-3.36-8.36A10.82,10.82,0,0,1,66.82,7.77Zm3,10.4a10.46,10.46,0,0,0,3.39,3.46,17.35,17.35,0,0,0,5.08,2.14,25.9,25.9,0,0,0,6.26.73h4.34V3.5h-7a21.53,21.53,0,0,0-4.9.56,13.47,13.47,0,0,0-4.23,1.75,9.43,9.43,0,0,0-3,3.08,8.57,8.57,0,0,0-1.16,4.55A9.09,9.09,0,0,0,69.8,18.17Z"/><path class="cls-1" d="M132.13,47.46,102.94,5.6V47.46H100V.84h2.94l29.19,41.79V.84h2.94V47.46Z"/><path class="cls-1" d="M180.62,5a30.38,30.38,0,0,0-5.81-1.72,34.43,34.43,0,0,0-6.44-.59,23.52,23.52,0,0,0-8.71,1.57,19.79,19.79,0,0,0-6.79,4.45,20,20,0,0,0-4.41,6.9,24.48,24.48,0,0,0-1.58,9,25,25,0,0,0,1.47,8.82A18,18,0,0,0,152.62,40a18.67,18.67,0,0,0,6.79,4.17,26.52,26.52,0,0,0,9,1.43c.75,0,1.61,0,2.59-.1s2-.17,2.94-.29,1.93-.25,2.84-.42a17.37,17.37,0,0,0,2.41-.59V27.72h2.94V46.13a31.86,31.86,0,0,1-6.82,1.64,53.37,53.37,0,0,1-7.25.53,27.9,27.9,0,0,1-10.08-1.72,21.72,21.72,0,0,1-7.63-4.83,20.9,20.9,0,0,1-4.83-7.48,26.87,26.87,0,0,1-1.68-9.7,27.27,27.27,0,0,1,1.75-9.9,22.38,22.38,0,0,1,5-7.77,22.65,22.65,0,0,1,7.74-5.08A26.71,26.71,0,0,1,168.3,0a41.5,41.5,0,0,1,7,.59,22.29,22.29,0,0,1,5.88,1.79Z"/><path class="cls-1" d="M30.71,2.05v44.2a22.92,22.92,0,0,1-7.4,1.21,23.31,23.31,0,0,1,0-46.62A22.92,22.92,0,0,1,30.71,2.05Z"/></g></g></svg>